# xmcd
#
# Track frame offsets:
#	150
#	22160
#	34320
#	45624
#	68829
#	83892
#	102500
#	119663
#	138440
#	149360
#	170457
#	186262
#	198793
#	219816
#
# Disc length: 3132 seconds
# Revision: 0
# Processed by: cddbd v1.5.2PL0 Copyright (c) Steve Scherf et al.
# Submitted via: dBpowerAMP V12.0
#
DISCID=cf0c3a0e
DTITLE=Banner Mountain Boys - Fifth Gear
DYEAR=2011
DGENRE=Country
TTITLE0=Another Night
TTITLE1=See You Later, 'Bye
TTITLE2=Born With a Hammer in My Hand
TTITLE3=Bury Me Beneath the Willow
TTITLE4=Montana Cowboy
TTITLE5=Rank Strangers
TTITLE6=Redwood Hill
TTITLE7=Child of Nature
TTITLE8=Whose Shoulder Will You Cry On?
TTITLE9=Stowaway
TTITLE10=Fifth Gear on a Harley
TTITLE11=Daybreak
TTITLE12=I Still Miss Someone
TTITLE13=Who Needs You?
EXTD=
EXTT0=
EXTT1=
EXTT2=
EXTT3=
EXTT4=
EXTT5=
EXTT6=
EXTT7=
EXTT8=
EXTT9=
EXTT10=
EXTT11=
EXTT12=
EXTT13=
PLAYORDER=
